<svg width="30" height="25" viewBox="0 0 30 25" fill="none" xmlns="http://www.w3.org/2000/svg">
<path d="M3.00085 7.24975C3.00264 6.77433 3.10092 6.30419 3.28972 5.86787C3.47853 5.43154 3.75391 5.03809 4.09924 4.71133C4.81482 4.03279 5.76433 3.65602 6.75046 3.65932H23.2512C24.2378 3.65768 25.1872 4.03582 25.9025 4.71533C26.247 5.04188 26.5219 5.43477 26.7106 5.87031C26.8994 6.30585 26.9981 6.77507 27.0009 7.24975V17.3025C26.9988 17.778 26.9003 18.2482 26.7115 18.6846C26.5228 19.121 26.2476 19.5146 25.9025 19.8417C25.1868 20.5207 24.2377 20.8987 23.2512 20.8978H6.75046C5.76389 20.8994 4.81451 20.5212 4.09924 19.8417C3.75382 19.5149 3.47833 19.1213 3.28953 18.6848C3.10072 18.2483 3.00253 17.7781 3.00085 17.3025V7.24975ZM6.75046 5.09536C6.15898 5.0931 5.58934 5.31885 5.16003 5.72573C4.95334 5.9215 4.78843 6.15712 4.67527 6.41836C4.56211 6.67959 4.50305 6.96106 4.50164 7.24575V9.11294H25.5016V7.24575C25.4998 6.96112 25.4405 6.67978 25.3274 6.4186C25.2143 6.15742 25.0496 5.92176 24.8432 5.72573C24.4137 5.31913 23.8443 5.09343 23.2529 5.09536H6.75046ZM4.50403 17.3025C4.50563 17.5872 4.56481 17.8686 4.67795 18.1298C4.7911 18.391 4.95588 18.6267 5.16243 18.8226C5.59196 19.2291 6.16145 19.4548 6.75286 19.4529H23.2536C23.845 19.4544 24.4144 19.2288 24.8441 18.8226C25.0503 18.6264 25.2148 18.3907 25.328 18.1296C25.4411 17.8684 25.5005 17.5871 25.5025 17.3025V10.5481H4.50403V17.3025ZM19.3545 15.4353C19.1574 15.4347 18.9677 15.5101 18.8248 15.6457C18.758 15.7083 18.7042 15.7834 18.6665 15.8668C18.6288 15.9503 18.6079 16.0403 18.6051 16.1318C18.6022 16.2233 18.6175 16.3145 18.65 16.4001C18.6825 16.4857 18.7316 16.564 18.7945 16.6306C18.8041 16.641 18.8144 16.6505 18.8248 16.6609C18.9679 16.7963 19.1575 16.8716 19.3545 16.8713H22.6552C22.8521 16.8712 23.0416 16.796 23.1848 16.6609C23.3194 16.5341 23.3981 16.3591 23.4036 16.1743C23.4092 15.9895 23.3411 15.81 23.2144 15.6753L23.1848 15.6457C23.0418 15.5104 22.8522 15.4351 22.6552 15.4353H19.3545Z" fill="#5F5F60"/>
</svg>
