<svg width="25" height="24" viewBox="0 0 25 24" fill="none" xmlns="http://www.w3.org/2000/svg">
<path d="M6.6 17.1C7.45 16.45 8.4 15.9375 9.45 15.5625C10.5 15.1875 11.6 15 12.75 15C13.9 15 15 15.1875 16.05 15.5625C17.1 15.9375 18.05 16.45 18.9 17.1C19.4833 16.4167 19.9375 15.6417 20.2625 14.775C20.5875 13.9083 20.75 12.9833 20.75 12C20.75 9.78333 19.9708 7.89583 18.4125 6.3375C16.8542 4.77917 14.9667 4 12.75 4C10.5333 4 8.64583 4.77917 7.0875 6.3375C5.52917 7.89583 4.75 9.78333 4.75 12C4.75 12.9833 4.9125 13.9083 5.2375 14.775C5.5625 15.6417 6.01667 16.4167 6.6 17.1ZM12.75 13C11.7667 13 10.9375 12.6625 10.2625 11.9875C9.5875 11.3125 9.25 10.4833 9.25 9.5C9.25 8.51667 9.5875 7.6875 10.2625 7.0125C10.9375 6.3375 11.7667 6 12.75 6C13.7333 6 14.5625 6.3375 15.2375 7.0125C15.9125 7.6875 16.25 8.51667 16.25 9.5C16.25 10.4833 15.9125 11.3125 15.2375 11.9875C14.5625 12.6625 13.7333 13 12.75 13ZM12.75 22C11.3667 22 10.0667 21.7375 8.85 21.2125C7.63333 20.6875 6.575 19.975 5.675 19.075C4.775 18.175 4.0625 17.1167 3.5375 15.9C3.0125 14.6833 2.75 13.3833 2.75 12C2.75 10.6167 3.0125 9.31667 3.5375 8.1C4.0625 6.88333 4.775 5.825 5.675 4.925C6.575 4.025 7.63333 3.3125 8.85 2.7875C10.0667 2.2625 11.3667 2 12.75 2C14.1333 2 15.4333 2.2625 16.65 2.7875C17.8667 3.3125 18.925 4.025 19.825 4.925C20.725 5.825 21.4375 6.88333 21.9625 8.1C22.4875 9.31667 22.75 10.6167 22.75 12C22.75 13.3833 22.4875 14.6833 21.9625 15.9C21.4375 17.1167 20.725 18.175 19.825 19.075C18.925 19.975 17.8667 20.6875 16.65 21.2125C15.4333 21.7375 14.1333 22 12.75 22Z" fill="#545454"/>
</svg>
