<svg width="30" height="26" viewBox="0 0 30 26" fill="none" xmlns="http://www.w3.org/2000/svg">
<path d="M14.8208 14.7337C13.8282 14.7348 12.8659 14.3916 12.098 13.7627C11.3301 13.1338 10.8041 12.258 10.6096 11.2846C10.4151 10.3113 10.5642 9.3006 11.0314 8.42485C11.4987 7.5491 12.2551 6.86246 13.1719 6.48203C14.0888 6.1016 15.1091 6.05091 16.0592 6.33857C17.0092 6.62623 17.83 7.23446 18.3818 8.05957C18.9335 8.88468 19.1821 9.87557 19.0851 10.8634C18.988 11.8513 18.5514 12.7749 17.8496 13.4769C17.0462 14.2803 15.957 14.7322 14.8208 14.7337ZM14.8208 7.8769C14.2253 7.87606 13.6479 8.08176 13.1871 8.45898C12.7262 8.8362 12.4105 9.36155 12.2936 9.9455C12.1768 10.5295 12.2661 11.1359 12.5463 11.6614C12.8265 12.1869 13.2802 12.599 13.8302 12.8273C14.3803 13.0557 14.9925 13.0863 15.5625 12.9138C16.1325 12.7414 16.6251 12.3766 16.9562 11.8816C17.2874 11.3866 17.4366 10.7921 17.3785 10.1994C17.3204 9.60672 17.0586 9.05254 16.6376 8.63129C16.1559 8.14894 15.5025 7.87733 14.8208 7.87607V7.8769Z" fill="#5F5F60"/>
<path d="M14.8208 25.0193L7.59044 16.4921C7.48964 16.362 7.39177 16.2329 7.29684 16.1049C6.06142 14.4781 5.39417 12.4908 5.39762 10.4481C5.38614 9.2026 5.62157 7.96722 6.09024 6.81324C6.55892 5.65927 7.25159 4.60958 8.12823 3.72482C9.00488 2.84006 10.0481 2.1378 11.1977 1.65851C12.3473 1.17922 13.5805 0.932434 14.826 0.932434C16.0716 0.932434 17.3047 1.17922 18.4543 1.65851C19.6039 2.1378 20.6472 2.84006 21.5238 3.72482C22.4005 4.60958 23.0931 5.65927 23.5618 6.81324C24.0305 7.96722 24.2659 9.2026 24.2544 10.4481C24.2573 12.4898 23.5904 14.4762 22.356 16.1025C22.356 16.1025 22.0984 16.4401 22.0624 16.4857L14.8208 25.0193ZM8.66085 15.0761C8.66085 15.0761 8.85681 15.3409 8.90641 15.3961L14.8216 22.3689L20.7416 15.3833C20.7792 15.3361 20.9816 15.0705 20.9816 15.0697C21.9904 13.7403 22.5358 12.1169 22.5344 10.4481C22.5344 8.40207 21.7216 6.43991 20.2749 4.99318C18.8282 3.54645 16.866 2.7337 14.82 2.7337C12.774 2.7337 10.8118 3.54645 9.3651 4.99318C7.91837 6.43991 7.10562 8.40207 7.10562 10.4481C7.10288 12.1191 7.64899 13.7448 8.66002 15.0753L8.66085 15.0761Z" fill="#5F5F60"/>
</svg>
