<svg width="24" height="24" viewBox="0 0 24 24" fill="none" xmlns="http://www.w3.org/2000/svg">
<path fill-rule="evenodd" clip-rule="evenodd" d="M4.48001 1.60001L4.39948 1.59996C4.03396 1.59962 3.71888 1.59931 3.43974 1.66633C2.56219 1.877 1.877 2.56219 1.66633 3.43974C1.59931 3.71888 1.59962 4.03396 1.59996 4.39948L1.60001 4.48001V8.32001L1.59996 8.40054C1.59962 8.76606 1.59931 9.08116 1.66633 9.36028C1.877 10.2378 2.56219 10.923 3.43974 11.1337C3.71888 11.2007 4.03396 11.2004 4.39948 11.2001L4.48001 11.2H8.32001L8.40054 11.2001C8.76606 11.2004 9.08116 11.2007 9.36028 11.1337C10.2378 10.923 10.923 10.2378 11.1337 9.36028C11.2007 9.08116 11.2004 8.76606 11.2001 8.40054L11.2 8.32001V4.48001L11.2001 4.39948C11.2004 4.03396 11.2007 3.71888 11.1337 3.43974C10.923 2.56219 10.2378 1.877 9.36028 1.66633C9.08116 1.59931 8.76606 1.59962 8.40054 1.59996L8.32001 1.60001H4.48001ZM3.81326 3.22212C3.88212 3.20558 3.98756 3.20001 4.48001 3.20001H8.32001C8.81248 3.20001 8.91792 3.20558 8.98676 3.22212C9.27929 3.29235 9.50768 3.52073 9.57792 3.81326C9.59444 3.88212 9.60001 3.98756 9.60001 4.48001V8.32001C9.60001 8.81248 9.59444 8.91792 9.57792 8.98676C9.50768 9.27929 9.27929 9.50768 8.98676 9.57792C8.91792 9.59444 8.81248 9.60001 8.32001 9.60001H4.48001C3.98756 9.60001 3.88212 9.59444 3.81326 9.57792C3.52073 9.50768 3.29235 9.27929 3.22212 8.98676C3.20558 8.91792 3.20001 8.81248 3.20001 8.32001V4.48001C3.20001 3.98756 3.20558 3.88212 3.22212 3.81326C3.29235 3.52073 3.52073 3.29235 3.81326 3.22212ZM15.68 1.60001L15.5995 1.59996C15.234 1.59962 14.9189 1.59931 14.6397 1.66633C13.7622 1.877 13.077 2.56219 12.8663 3.43974C12.7993 3.71888 12.7996 4.03396 12.8 4.39948L12.8 4.48001V8.32001L12.8 8.40054C12.7996 8.76606 12.7993 9.08116 12.8663 9.36028C13.077 10.2378 13.7622 10.923 14.6397 11.1337C14.9189 11.2007 15.234 11.2004 15.5995 11.2001L15.68 11.2H19.52L19.6005 11.2001C19.9661 11.2004 20.2811 11.2007 20.5603 11.1337C21.4378 10.923 22.1231 10.2378 22.3338 9.36028C22.4007 9.08116 22.4005 8.76606 22.4 8.40054V8.32001V4.48001V4.39948C22.4005 4.03396 22.4007 3.71888 22.3338 3.43974C22.1231 2.56219 21.4378 1.877 20.5603 1.66633C20.2811 1.59931 19.9661 1.59962 19.6005 1.59996L19.52 1.60001H15.68ZM15.0133 3.22212C15.0821 3.20558 15.1876 3.20001 15.68 3.20001H19.52C20.0125 3.20001 20.1179 3.20558 20.1867 3.22212C20.4792 3.29235 20.7077 3.52073 20.7779 3.81326C20.7944 3.88212 20.8 3.98756 20.8 4.48001V8.32001C20.8 8.81248 20.7944 8.91792 20.7779 8.98676C20.7077 9.27929 20.4792 9.50768 20.1867 9.57792C20.1179 9.59444 20.0125 9.60001 19.52 9.60001H15.68C15.1876 9.60001 15.0821 9.59444 15.0133 9.57792C14.7207 9.50768 14.4923 9.27929 14.4221 8.98676C14.4056 8.91792 14.4 8.81248 14.4 8.32001V4.48001C14.4 3.98756 14.4056 3.88212 14.4221 3.81326C14.4923 3.52073 14.7207 3.29235 15.0133 3.22212ZM4.39948 12.8L4.48001 12.8H8.32001L8.40054 12.8C8.76606 12.7996 9.08116 12.7993 9.36028 12.8663C10.2378 13.077 10.923 13.7622 11.1337 14.6397C11.2007 14.9189 11.2004 15.234 11.2001 15.5995L11.2 15.68V19.52L11.2001 19.6005C11.2004 19.9661 11.2007 20.2811 11.1337 20.5603C10.923 21.4378 10.2378 22.1231 9.36028 22.3338C9.08116 22.4007 8.76606 22.4005 8.40054 22.4H8.32001H4.48001H4.39948C4.03396 22.4005 3.71888 22.4007 3.43974 22.3338C2.56219 22.1231 1.877 21.4378 1.66633 20.5603C1.59931 20.2811 1.59962 19.9661 1.59996 19.6005L1.60001 19.52V15.68L1.59996 15.5995C1.59962 15.234 1.59931 14.9189 1.66633 14.6397C1.877 13.7622 2.56219 13.077 3.43974 12.8663C3.71888 12.7993 4.03396 12.7996 4.39948 12.8ZM4.48001 14.4C3.98756 14.4 3.88212 14.4056 3.81326 14.4221C3.52073 14.4923 3.29235 14.7207 3.22212 15.0133C3.20558 15.0821 3.20001 15.1876 3.20001 15.68V19.52C3.20001 20.0125 3.20558 20.1179 3.22212 20.1867C3.29235 20.4792 3.52073 20.7077 3.81326 20.7779C3.88212 20.7944 3.98756 20.8 4.48001 20.8H8.32001C8.81248 20.8 8.91792 20.7944 8.98676 20.7779C9.27929 20.7077 9.50768 20.4792 9.57792 20.1867C9.59444 20.1179 9.60001 20.0125 9.60001 19.52V15.68C9.60001 15.1876 9.59444 15.0821 9.57792 15.0133C9.50768 14.7207 9.27929 14.4923 8.98676 14.4221C8.91792 14.4056 8.81248 14.4 8.32001 14.4H4.48001ZM15.68 12.8L15.5995 12.8C15.234 12.7996 14.9189 12.7993 14.6397 12.8663C13.7622 13.077 13.077 13.7622 12.8663 14.6397C12.7993 14.9189 12.7996 15.234 12.8 15.5995L12.8 15.68V19.52L12.8 19.6005C12.7996 19.9661 12.7993 20.2811 12.8663 20.5603C13.077 21.4378 13.7622 22.1231 14.6397 22.3338C14.9189 22.4007 15.234 22.4005 15.5995 22.4H15.68H19.52H19.6005C19.9661 22.4005 20.2811 22.4007 20.5603 22.3338C21.4378 22.1231 22.1231 21.4378 22.3338 20.5603C22.4007 20.2811 22.4005 19.9661 22.4 19.6005V19.52V15.68V15.5995C22.4005 15.234 22.4007 14.9189 22.3338 14.6397C22.1231 13.7622 21.4378 13.077 20.5603 12.8663C20.2811 12.7993 19.9661 12.7996 19.6005 12.8L19.52 12.8H15.68ZM15.0133 14.4221C15.0821 14.4056 15.1876 14.4 15.68 14.4H19.52C20.0125 14.4 20.1179 14.4056 20.1867 14.4221C20.4792 14.4923 20.7077 14.7207 20.7779 15.0133C20.7944 15.0821 20.8 15.1876 20.8 15.68V19.52C20.8 20.0125 20.7944 20.1179 20.7779 20.1867C20.7077 20.4792 20.4792 20.7077 20.1867 20.7779C20.1179 20.7944 20.0125 20.8 19.52 20.8H15.68C15.1876 20.8 15.0821 20.7944 15.0133 20.7779C14.7207 20.7077 14.4923 20.4792 14.4221 20.1867C14.4056 20.1179 14.4 20.0125 14.4 19.52V15.68C14.4 15.1876 14.4056 15.0821 14.4221 15.0133C14.4923 14.7207 14.7207 14.4923 15.0133 14.4221Z" fill="#F1F1F1"/>
</svg>
