<svg width="24" height="24" viewBox="0 0 24 24" fill="none" xmlns="http://www.w3.org/2000/svg">
<path d="M3 6.00085L6 2.00085H18L21 6.00085M3 6.00085V20.0009C3 20.5313 3.21071 21.04 3.58579 21.4151C3.96086 21.7901 4.46957 22.0009 5 22.0009H19C19.5304 22.0009 20.0391 21.7901 20.4142 21.4151C20.7893 21.04 21 20.5313 21 20.0009V6.00085M3 6.00085H21M16 10.0009C16 11.0617 15.5786 12.0791 14.8284 12.8293C14.0783 13.5794 13.0609 14.0009 12 14.0009C10.9391 14.0009 9.92172 13.5794 9.17157 12.8293C8.42143 12.0791 8 11.0617 8 10.0009" stroke="#707070" stroke-width="2" stroke-linecap="round" stroke-linejoin="round"/>
</svg>
