<svg width="24" height="25" viewBox="0 0 24 25" fill="none" xmlns="http://www.w3.org/2000/svg">
<path d="M14 2.43945H6C5.46957 2.43945 4.96086 2.65017 4.58579 3.02524C4.21071 3.40031 4 3.90902 4 4.43945V20.4395C4 20.9699 4.21071 21.4786 4.58579 21.8537C4.96086 22.2287 5.46957 22.4395 6 22.4395H18C18.5304 22.4395 19.0391 22.2287 19.4142 21.8537C19.7893 21.4786 20 20.9699 20 20.4395V8.43945M14 2.43945L20 8.43945M14 2.43945L14 8.43945H20M16 13.4395H8M16 17.4395H8M10 9.43945H8" stroke="#707070" stroke-width="2" stroke-linecap="round" stroke-linejoin="round"/>
</svg>
